# xmcd CD database file
#
# Track frame offsets:
#	150
#	62950
#	93368
#	119205
#	136045
#	159725
#	188015
#
# Disc length: 3101 seconds
#
# Revision: 0
# Processed by: cddbd v1.5.1PL0 Copyright (c) Steve Scherf et al.
# Submitted via: Feurio! 1.68 - http://www.feurio.com
#
DISCID=600c1b07
DTITLE=Rammstein - Live aus Berlin - CD2
DYEAR=1900
DGENRE=Deutsch-Rock
TTITLE0=Movie
TTITLE1=Engel
TTITLE2=Rammstein
TTITLE3=Tier
TTITLE4=Laichzeit
TTITLE5=Wollt Ihr Das Bett In Flammen Seh´n
TTITLE6=Seemann
EXTD=
EXTT0=
EXTT1=
EXTT2=
EXTT3=
EXTT4=
EXTT5=
EXTT6=
PLAYORDER=
